<svg xmlns="http://www.w3.org/2000/svg" width="1179.72" height="593.51" viewBox="0 0 1179.72 593.51"><defs><style>.cls-1{fill:#24249b;}.cls-2{fill:#1fd1f9;}</style></defs><g id="Layer_2" data-name="Layer 2"><g id="Layer_1-2" data-name="Layer 1"><circle class="cls-1" cx="296.76" cy="296.76" r="296.76"/><path class="cls-2" d="M283.54,296.76a99.79,99.79,0,0,1-99.66,99.92h-.27a99.24,99.24,0,0,1-62.81-22.55,89.06,89.06,0,0,1-9.13-8.45A99.2,99.2,0,0,1,84,296.76a109,109,0,0,1,.74-14.9,99.93,99.93,0,0,1,173.61-51.34,2.55,2.55,0,0,1,0,3.49L231.73,257.7a2,2,0,0,1-2.75.14l-.14-.14a57.38,57.38,0,0,0-45.23-22.82,59.38,59.38,0,0,0-56.77,47,63.36,63.36,0,0,0-1.75,14.9,66.12,66.12,0,0,0,3.36,20.73,62.82,62.82,0,0,0,12.48,21.61,60,60,0,0,0,9.13,8.46,55.58,55.58,0,0,0,33.55,11.27,59,59,0,0,0,55.16-41.34H211.93a17.78,17.78,0,0,1-17.78-17.78h0a17.77,17.77,0,0,1,17.51-17.85h69.12a1.93,1.93,0,0,1,1.88,1.68A95.73,95.73,0,0,1,283.54,296.76Z"/><path class="cls-2" d="M409.9,196.83A99.93,99.93,0,1,0,510,296.76,99.92,99.92,0,0,0,409.9,196.83Zm0,162a60.4,60.4,0,0,1-58.45-62.07,58.59,58.59,0,0,1,117-6.87,56.24,56.24,0,0,1,0,6.87A60.39,60.39,0,0,1,409.9,358.83Z"/><path class="cls-1" d="M765,397.08a115.83,115.83,0,0,1-53.69-11.87,88.54,88.54,0,0,1-36.57-34.36,101.72,101.72,0,0,1-13.42-52.68,102.29,102.29,0,0,1,13-51.48,93,93,0,0,1,36.91-36.17,112.75,112.75,0,0,1,55.43-13.42,129.37,129.37,0,0,1,32.35,4.23,103.75,103.75,0,0,1,28.25,11.34l-6.37,33a120.19,120.19,0,0,0-53.69-13.83,70.45,70.45,0,0,0-33.56,7.92,57.46,57.46,0,0,0-23.22,22.75,69,69,0,0,0-8.45,34.76,63.13,63.13,0,0,0,17.92,47.38A65.88,65.88,0,0,0,768,362.39a115.79,115.79,0,0,0,28.39-3.83,129.8,129.8,0,0,0,28.39-10.73l4.09,33.55a118.17,118.17,0,0,1-29.93,11.48A142.92,142.92,0,0,1,765,397.08Z"/><path class="cls-1" d="M875.78,237.63a20.68,20.68,0,0,1-15.24-35.3,22.83,22.83,0,0,1,30.47,0,21.08,21.08,0,0,1,0,29.4A20.85,20.85,0,0,1,875.78,237.63Zm-17.65,26.85H893.7V394.27H858.13Z"/><path class="cls-1" d="M988.72,398.36c-16.17,0-28.18-4.09-36-12.42S940.94,365.07,940.94,348V293.6h-25.3V264.21h25.3v-35.3h35.5v35.3h40.67V293.6H976.44v48a31.73,31.73,0,0,0,4.63,19.4,18.46,18.46,0,0,0,15.57,5.9,48,48,0,0,0,23-5.63l3.83,29.66a56.57,56.57,0,0,1-15.24,5.37A92.82,92.82,0,0,1,988.72,398.36Z"/><path class="cls-1" d="M1061.94,459.23a69.18,69.18,0,0,1-14.7-1.55,33.46,33.46,0,0,1-10.87-4.09l4.56-30.47a36.54,36.54,0,0,0,16.92,3.89,21.25,21.25,0,0,0,15.7-6,73.2,73.2,0,0,0,12.88-22.61l4.63-11-54.42-123.14h38.59l34.49,87.64,31.94-87.64h38.06l-57,137a189.58,189.58,0,0,1-18.25,35,56,56,0,0,1-18.79,17.58A50.52,50.52,0,0,1,1061.94,459.23Z"/></g></g></svg>